<svg xmlns="http://www.w3.org/2000/svg" xmlns:xlink="http://www.w3.org/1999/xlink" id="visual" version="1.1" viewBox="0 331.32 960 209.68"><path d="M0 341L22.8 337.3C45.7 333.7 91.3 326.3 137 336.5C182.7 346.7 228.3 374.3 274 384C319.7 393.7 365.3 385.3 411.2 373.7C457 362 503 347 548.8 339.3C594.7 331.7 640.3 331.3 686 338C731.7 344.7 777.3 358.3 823 365.5C868.7 372.7 914.3 373.3 937.2 373.7L960 374L960 541L937.2 541C914.3 541 868.7 541 823 541C777.3 541 731.7 541 686 541C640.3 541 594.7 541 548.8 541C503 541 457 541 411.2 541C365.3 541 319.7 541 274 541C228.3 541 182.7 541 137 541C91.3 541 45.7 541 22.8 541L0 541Z" fill="#6a2bc9"/><path d="M0 355L22.8 362.5C45.7 370 91.3 385 137 395.3C182.7 405.7 228.3 411.3 274 408.3C319.7 405.3 365.3 393.7 411.2 393.5C457 393.3 503 404.7 548.8 407.5C594.7 410.3 640.3 404.7 686 399C731.7 393.3 777.3 387.7 823 392C868.7 396.3 914.3 410.7 937.2 417.8L960 425L960 541L937.2 541C914.3 541 868.7 541 823 541C777.3 541 731.7 541 686 541C640.3 541 594.7 541 548.8 541C503 541 457 541 411.2 541C365.3 541 319.7 541 274 541C228.3 541 182.7 541 137 541C91.3 541 45.7 541 22.8 541L0 541Z" fill="#8536d4"/><path d="M0 431L22.8 424.8C45.7 418.7 91.3 406.3 137 408.3C182.7 410.3 228.3 426.7 274 427.3C319.7 428 365.3 413 411.2 405.5C457 398 503 398 548.8 402.2C594.7 406.3 640.3 414.7 686 416.2C731.7 417.7 777.3 412.3 823 415C868.7 417.7 914.3 428.3 937.2 433.7L960 439L960 541L937.2 541C914.3 541 868.7 541 823 541C777.3 541 731.7 541 686 541C640.3 541 594.7 541 548.8 541C503 541 457 541 411.2 541C365.3 541 319.7 541 274 541C228.3 541 182.7 541 137 541C91.3 541 45.7 541 22.8 541L0 541Z" fill="#9e42de"/><path d="M0 458L22.8 456C45.7 454 91.3 450 137 447.3C182.7 444.7 228.3 443.3 274 444.3C319.7 445.3 365.3 448.7 411.2 455.7C457 462.7 503 473.3 548.8 470.8C594.7 468.3 640.3 452.7 686 445.7C731.7 438.7 777.3 440.3 823 444C868.7 447.7 914.3 453.3 937.2 456.2L960 459L960 541L937.2 541C914.3 541 868.7 541 823 541C777.3 541 731.7 541 686 541C640.3 541 594.7 541 548.8 541C503 541 457 541 411.2 541C365.3 541 319.7 541 274 541C228.3 541 182.7 541 137 541C91.3 541 45.7 541 22.8 541L0 541Z" fill="#b64fe8"/><path d="M0 484L22.8 482.5C45.7 481 91.3 478 137 483C182.7 488 228.3 501 274 503.8C319.7 506.7 365.3 499.3 411.2 496.8C457 494.3 503 496.7 548.8 498.3C594.7 500 640.3 501 686 497.3C731.7 493.7 777.3 485.3 823 481.7C868.7 478 914.3 479 937.2 479.5L960 480L960 541L937.2 541C914.3 541 868.7 541 823 541C777.3 541 731.7 541 686 541C640.3 541 594.7 541 548.8 541C503 541 457 541 411.2 541C365.3 541 319.7 541 274 541C228.3 541 182.7 541 137 541C91.3 541 45.7 541 22.8 541L0 541Z" fill="#ce5cf2"/></svg>